<svg xmlns="http://www.w3.org/2000/svg" viewBox="0 0 32 32">
  <rect width="32" height="32" rx="8" fill="#059669"/>
  <g transform="translate(16,16)" fill="none" stroke="white" stroke-width="1.8" stroke-linecap="round" stroke-linejoin="round">
    <path d="M-6 3a7 7 0 0 1 14 0"/>
    <path d="M-9 3v5a2 2 0 0 0 2 2h1a2 2 0 0 0 2-2V5a2 2 0 0 0-2-2h-1a2 2 0 0 0-2 2"/>
    <path d="M9 3v5a2 2 0 0 1-2 2h-1a2 2 0 0 1-2-2V5a2 2 0 0 1 2-2h1a2 2 0 0 1 2 2"/>
    <path d="M-9 10c0 0 2 3 9 3s9-3 9-3"/>
  </g>
</svg>
